<svg xmlns="http://www.w3.org/2000/svg" viewBox="0 0 100 100">
  <!-- Red segment (top) -->
  <path d="M50 50 L50 5 A45 45 0 0 1 88.97 27.5 Z" fill="#EA4335"/>
  <!-- Yellow segment (bottom right) -->
  <path d="M50 50 L88.97 27.5 A45 45 0 0 1 88.97 72.5 Z" fill="#FBBC05"/>
  <!-- Green segment (bottom left) -->
  <path d="M50 50 L88.97 72.5 A45 45 0 0 1 11.03 72.5 Z" fill="#34A853"/>
  <!-- Green segment continues to bottom left -->
  <path d="M50 50 L11.03 72.5 A45 45 0 0 1 11.03 27.5 Z" fill="#34A853"/>
  <!-- Red segment left -->
  <path d="M50 50 L11.03 27.5 A45 45 0 0 1 50 5 Z" fill="#EA4335"/>
  <!-- White ring -->
  <circle cx="50" cy="50" r="30" fill="white"/>
  <!-- Blue center -->
  <circle cx="50" cy="50" r="22" fill="#4285F4"/>
</svg>
