<svg xmlns="http://www.w3.org/2000/svg" width="1165.1399999999999" height="1086" viewBox="0 0 1165.1399999999999 1086" role="img" aria-label="Saving a Stickies Note"><title>Saving a Stickies Note</title><rect width="1165.1399999999999" height="1086" fill="#ffffff"/><defs><clipPath id="bcp0_198"><rect x="94" y="198" width="141" height="36" rx="6"/></clipPath><clipPath id="bcp1_198"><rect x="289" y="198" width="169" height="36" rx="6"/></clipPath><clipPath id="bcp2_198"><rect x="512.14" y="198" width="141" height="36" rx="6"/></clipPath><clipPath id="bcp3_198"><rect x="721.14" y="198" width="141" height="36" rx="6"/></clipPath><clipPath id="bcp4_198"><rect x="930.14" y="198" width="141" height="36" rx="6"/></clipPath><clipPath id="bcp0_970"><rect x="94" y="970" width="141" height="36" rx="6"/></clipPath><clipPath id="bcp1_970"><rect x="289" y="970" width="169" height="36" rx="6"/></clipPath><clipPath id="bcp2_970"><rect x="512.14" y="970" width="141" height="36" rx="6"/></clipPath><clipPath id="bcp3_970"><rect x="721.14" y="970" width="141" height="36" rx="6"/></clipPath><clipPath id="bcp4_970"><rect x="930.14" y="970" width="141" height="36" rx="6"/></clipPath></defs><text id="diagram-title" x="80" y="105" dominant-baseline="middle" font-family="'Roboto', sans-serif" font-size="30" font-weight="800" fill="#1e293b" style="cursor:pointer">Saving a Stickies Note</text><text x="80" y="135" dominant-baseline="middle" font-family="'Roboto', sans-serif" font-size="11" fill="#718096"><tspan font-weight="800" fill="#a0aec0">BH</tspan><tspan font-weight="300" fill="#cbd5e0"> | </tspan><tspan font-weight="400">Sep 21, 2026 · 04:10 PM</tspan></text><line x1="164.5" y1="234" x2="164.5" y2="970" stroke="#ef444460" stroke-width="1.5" stroke-dasharray="none" data-pid="U"/><line x1="373.5" y1="234" x2="373.5" y2="970" stroke="#f9731660" stroke-width="1.5" stroke-dasharray="none" data-pid="E"/><line x1="582.64" y1="234" x2="582.64" y2="970" stroke="#eab30860" stroke-width="1.5" stroke-dasharray="none" data-pid="A"/><line x1="791.64" y1="234" x2="791.64" y2="970" stroke="#22c55e60" stroke-width="1.5" stroke-dasharray="none" data-pid="D"/><line x1="1000.64" y1="234" x2="1000.64" y2="970" stroke="#14b8a660" stroke-width="1.5" stroke-dasharray="none" data-pid="P"/><g data-pid="U" style="cursor:pointer"><rect x="94" y="198" width="141" height="36" rx="6" fill="#ef4444" stroke="#000000" stroke-width="2"/><rect x="94" y="198" width="141" height="19.8" clip-path="url(#bcp0_198)" fill="white" fill-opacity="0.18"/><rect x="94" y="198" width="141" height="7.92" clip-path="url(#bcp0_198)" fill="white" fill-opacity="0.12"/><path d="M100,199 H130 V233 H100 Q95,233 95,228 V204 Q95,199 100,199 Z" fill="white" fill-opacity="0.92"/><line x1="129" y1="202" x2="129" y2="230" stroke="white" stroke-opacity="0.35" stroke-width="1"/><g transform="translate(103.0,207.0) scale(0.7500)" fill="none" stroke="#ef4444" stroke-width="2.40" stroke-linecap="round" stroke-linejoin="round"><path d="M19 21v-2a4 4 0 0 0-4-4H9a4 4 0 0 0-4 4v2"/><circle cx="12" cy="7" r="4"/></g><text x="182.5" y="217" text-anchor="middle" dominant-baseline="middle" font-family="'Roboto', sans-serif" font-size="13" font-weight="700" fill="#000000">User</text></g><g data-pid="E" style="cursor:pointer"><rect x="289" y="198" width="169" height="36" rx="6" fill="#f97316" stroke="#000000" stroke-width="2"/><rect x="289" y="198" width="169" height="19.8" clip-path="url(#bcp1_198)" fill="white" fill-opacity="0.18"/><rect x="289" y="198" width="169" height="7.92" clip-path="url(#bcp1_198)" fill="white" fill-opacity="0.12"/><path d="M295,199 H325 V233 H295 Q290,233 290,228 V204 Q290,199 295,199 Z" fill="white" fill-opacity="0.92"/><line x1="324" y1="202" x2="324" y2="230" stroke="white" stroke-opacity="0.35" stroke-width="1"/><g transform="translate(298.0,207.0) scale(0.7500)" fill="none" stroke="#f97316" stroke-width="2.40" stroke-linecap="round" stroke-linejoin="round"><circle cx="12" cy="12" r="10"/><path d="M12 2a14.5 14.5 0 0 0 0 20 14.5 14.5 0 0 0 0-20"/><path d="M2 12h20"/></g><text x="391.5" y="217" text-anchor="middle" dominant-baseline="middle" font-family="'Roboto', sans-serif" font-size="13" font-weight="700" fill="#000000">Browser editor</text></g><g data-pid="A" style="cursor:pointer"><rect x="512.14" y="198" width="141" height="36" rx="6" fill="#eab308" stroke="#000000" stroke-width="2"/><rect x="512.14" y="198" width="141" height="19.8" clip-path="url(#bcp2_198)" fill="white" fill-opacity="0.18"/><rect x="512.14" y="198" width="141" height="7.92" clip-path="url(#bcp2_198)" fill="white" fill-opacity="0.12"/><path d="M518.14,199 H548.14 V233 H518.14 Q513.14,233 513.14,228 V204 Q513.14,199 518.14,199 Z" fill="white" fill-opacity="0.92"/><line x1="547.14" y1="202" x2="547.14" y2="230" stroke="white" stroke-opacity="0.35" stroke-width="1"/><g transform="translate(521.1,207.0) scale(0.7500)" fill="none" stroke="#eab308" stroke-width="2.40" stroke-linecap="round" stroke-linejoin="round"><rect width="20" height="8" x="2" y="2" rx="2"/><rect width="20" height="8" x="2" y="14" rx="2"/><path d="M6 6h.01"/><path d="M6 18h.01"/></g><text x="600.64" y="217" text-anchor="middle" dominant-baseline="middle" font-family="'Roboto', sans-serif" font-size="13" font-weight="700" fill="#000000">API</text></g><g data-pid="D" style="cursor:pointer"><rect x="721.14" y="198" width="141" height="36" rx="6" fill="#22c55e" stroke="#000000" stroke-width="2"/><rect x="721.14" y="198" width="141" height="19.8" clip-path="url(#bcp3_198)" fill="white" fill-opacity="0.18"/><rect x="721.14" y="198" width="141" height="7.92" clip-path="url(#bcp3_198)" fill="white" fill-opacity="0.12"/><path d="M727.14,199 H757.14 V233 H727.14 Q722.14,233 722.14,228 V204 Q722.14,199 727.14,199 Z" fill="white" fill-opacity="0.92"/><line x1="756.14" y1="202" x2="756.14" y2="230" stroke="white" stroke-opacity="0.35" stroke-width="1"/><g transform="translate(730.1,207.0) scale(0.7500)" fill="none" stroke="#22c55e" stroke-width="2.40" stroke-linecap="round" stroke-linejoin="round"><ellipse cx="12" cy="5" rx="9" ry="3"/><path d="M3 5V19A9 3 0 0 0 21 19V5"/><path d="M3 12A9 3 0 0 0 21 12"/></g><text x="809.64" y="217" text-anchor="middle" dominant-baseline="middle" font-family="'Roboto', sans-serif" font-size="13" font-weight="700" fill="#000000">PostgreSQL</text></g><g data-pid="P" style="cursor:pointer"><rect x="930.14" y="198" width="141" height="36" rx="6" fill="#14b8a6" stroke="#000000" stroke-width="2"/><rect x="930.14" y="198" width="141" height="19.8" clip-path="url(#bcp4_198)" fill="white" fill-opacity="0.18"/><rect x="930.14" y="198" width="141" height="7.92" clip-path="url(#bcp4_198)" fill="white" fill-opacity="0.12"/><path d="M936.14,199 H966.14 V233 H936.14 Q931.14,233 931.14,228 V204 Q931.14,199 936.14,199 Z" fill="white" fill-opacity="0.92"/><line x1="965.14" y1="202" x2="965.14" y2="230" stroke="white" stroke-opacity="0.35" stroke-width="1"/><g transform="translate(939.1,207.0) scale(0.7500)" fill="none" stroke="#14b8a6" stroke-width="2.40" stroke-linecap="round" stroke-linejoin="round"><path d="M9.671 4.136a2.34 2.34 0 0 1 4.659 0 2.34 2.34 0 0 0 3.319 1.915 2.34 2.34 0 0 1 2.33 4.033 2.34 2.34 0 0 0 0 3.831 2.34 2.34 0 0 1-2.33 4.033 2.34 2.34 0 0 0-3.319 1.915 2.34 2.34 0 0 1-4.659 0 2.34 2.34 0 0 0-3.32-1.915 2.34 2.34 0 0 1-2.33-4.033 2.34 2.34 0 0 0 0-3.831A2.34 2.34 0 0 1 6.35 6.051a2.34 2.34 0 0 0 3.319-1.915"/><circle cx="12" cy="12" r="3"/></g><text x="1018.64" y="217" text-anchor="middle" dominant-baseline="middle" font-family="'Roboto', sans-serif" font-size="13" font-weight="700" fill="#000000">Pusher</text></g><g data-from="U" data-to="E"><line x1="180.5" y1="308" x2="365.5" y2="308" stroke="#ef4444" stroke-width="1.5"/><polygon points="373.5,308 365.5,303 365.5,313" fill="#ef4444"/><rect x="198.51999999999998" y="297.5" width="140.96" height="21" rx="10.5" fill="#ffffff"/><rect x="198.51999999999998" y="297.5" width="140.96" height="21" rx="10.5" fill="#ef4444" fill-opacity="0.08" stroke="#ef4444" stroke-width="1"/><text x="269" y="309" text-anchor="middle" dominant-baseline="middle" font-family="'Roboto', sans-serif" font-size="13" font-weight="600" fill="#000000">Type, then Cmd+S</text><circle cx="164.5" cy="308" r="12" fill="#ef4444" stroke="#ef4444" stroke-width="2"/><text x="164.5" y="309" text-anchor="middle" dominant-baseline="middle" font-family="'Roboto', sans-serif" font-size="11" font-weight="700" fill="#000000">1</text></g><g data-from="E" data-to="A"><line x1="389.5" y1="392" x2="574.64" y2="392" stroke="#f97316" stroke-width="1.5"/><polygon points="582.64,392 574.64,387 574.64,397" fill="#f97316"/><rect x="397.5" y="381.5" width="161.14" height="21" rx="10.5" fill="#ffffff"/><rect x="397.5" y="381.5" width="161.14" height="21" rx="10.5" fill="#f97316" fill-opacity="0.08" stroke="#f97316" stroke-width="1"/><text x="478.07" y="393" text-anchor="middle" dominant-baseline="middle" font-family="'Roboto', sans-serif" font-size="13" font-weight="600" fill="#000000">PATCH /api/sticki…</text><circle cx="373.5" cy="392" r="12" fill="#f97316" stroke="#f97316" stroke-width="2"/><text x="373.5" y="393" text-anchor="middle" dominant-baseline="middle" font-family="'Roboto', sans-serif" font-size="11" font-weight="700" fill="#000000">2</text></g><g data-from="A" data-to="A"><rect x="598.64" y="465.5" width="302.16" height="21" rx="10.5" fill="#ffffff"/><rect x="598.64" y="465.5" width="302.16" height="21" rx="10.5" fill="#eab308" fill-opacity="0.08" stroke="#eab308" stroke-width="1"/><text x="749.72" y="477" text-anchor="middle" dominant-baseline="middle" font-family="'Roboto', sans-serif" font-size="13" font-weight="600" fill="#000000">Identify caller (session or API key)</text><circle cx="582.64" cy="476" r="12" fill="#eab308" stroke="#eab308" stroke-width="2"/><text x="582.64" y="477" text-anchor="middle" dominant-baseline="middle" font-family="'Roboto', sans-serif" font-size="11" font-weight="700" fill="#000000">3</text></g><g data-from="A" data-to="D"><line x1="598.64" y1="560" x2="783.64" y2="560" stroke="#eab308" stroke-width="1.5"/><polygon points="791.64,560 783.64,555 783.64,565" fill="#eab308"/><rect x="620.6899999999999" y="549.5" width="132.9" height="21" rx="10.5" fill="#ffffff"/><rect x="620.6899999999999" y="549.5" width="132.9" height="21" rx="10.5" fill="#eab308" fill-opacity="0.08" stroke="#eab308" stroke-width="1"/><text x="687.14" y="561" text-anchor="middle" dominant-baseline="middle" font-family="'Roboto', sans-serif" font-size="13" font-weight="600" fill="#000000">UPDATE stickies</text><circle cx="582.64" cy="560" r="12" fill="#eab308" stroke="#eab308" stroke-width="2"/><text x="582.64" y="561" text-anchor="middle" dominant-baseline="middle" font-family="'Roboto', sans-serif" font-size="11" font-weight="700" fill="#000000">4</text></g><g data-from="D" data-to="A"><line x1="775.64" y1="644" x2="590.64" y2="644" stroke="#22c55e" stroke-dasharray="3 4" stroke-width="1.5"/><polyline points="590.64,639 582.64,644 590.64,649" fill="none" stroke="#22c55e" stroke-width="1.5"/><rect x="667.14" y="633.5" width="40" height="21" rx="10.5" fill="#ffffff"/><rect x="667.14" y="633.5" width="40" height="21" rx="10.5" fill="#22c55e" fill-opacity="0.08" stroke="#22c55e" stroke-width="1"/><text x="687.14" y="645" text-anchor="middle" dominant-baseline="middle" font-family="'Roboto', sans-serif" font-size="13" font-weight="600" fill="#000000">Row</text><circle cx="791.64" cy="644" r="12" fill="#22c55e" stroke="#22c55e" stroke-width="2"/><text x="791.64" y="645" text-anchor="middle" dominant-baseline="middle" font-family="'Roboto', sans-serif" font-size="11" font-weight="700" fill="#000000">5</text></g><g data-from="A" data-to="P"><line x1="598.64" y1="728" x2="992.64" y2="728" stroke="#eab308" stroke-width="1.5"/><polygon points="1000.64,728 992.64,723 992.64,733" fill="#eab308"/><rect x="705.04" y="717.5" width="173.20000000000002" height="21" rx="10.5" fill="#ffffff"/><rect x="705.04" y="717.5" width="173.20000000000002" height="21" rx="10.5" fill="#eab308" fill-opacity="0.08" stroke="#eab308" stroke-width="1"/><text x="791.64" y="729" text-anchor="middle" dominant-baseline="middle" font-family="'Roboto', sans-serif" font-size="13" font-weight="600" fill="#000000">Broadcast the change</text><circle cx="582.64" cy="728" r="12" fill="#eab308" stroke="#eab308" stroke-width="2"/><text x="582.64" y="729" text-anchor="middle" dominant-baseline="middle" font-family="'Roboto', sans-serif" font-size="11" font-weight="700" fill="#000000">6</text></g><g data-from="P" data-to="U"><line x1="984.64" y1="812" x2="172.5" y2="812" stroke="#14b8a6" stroke-dasharray="3 4" stroke-width="1.5"/><polyline points="172.5,807 164.5,812 172.5,817" fill="none" stroke="#14b8a6" stroke-width="1.5"/><rect x="475.81999999999994" y="801.5" width="213.5" height="21" rx="10.5" fill="#ffffff"/><rect x="475.81999999999994" y="801.5" width="213.5" height="21" rx="10.5" fill="#14b8a6" fill-opacity="0.08" stroke="#14b8a6" stroke-width="1"/><text x="582.5699999999999" y="813" text-anchor="middle" dominant-baseline="middle" font-family="'Roboto', sans-serif" font-size="13" font-weight="600" fill="#000000">Other devices update live</text><circle cx="1000.64" cy="812" r="12" fill="#14b8a6" stroke="#14b8a6" stroke-width="2"/><text x="1000.64" y="813" text-anchor="middle" dominant-baseline="middle" font-family="'Roboto', sans-serif" font-size="11" font-weight="700" fill="#000000">7</text></g><g data-from="A" data-to="E"><line x1="566.64" y1="896" x2="381.5" y2="896" stroke="#eab308" stroke-dasharray="3 4" stroke-width="1.5"/><polyline points="381.5,891 373.5,896 381.5,901" fill="none" stroke="#eab308" stroke-width="1.5"/><rect x="415.65" y="885.5" width="124.84" height="21" rx="10.5" fill="#ffffff"/><rect x="415.65" y="885.5" width="124.84" height="21" rx="10.5" fill="#eab308" fill-opacity="0.08" stroke="#eab308" stroke-width="1"/><text x="478.07" y="897" text-anchor="middle" dominant-baseline="middle" font-family="'Roboto', sans-serif" font-size="13" font-weight="600" fill="#000000">200 OK + toast</text><circle cx="582.64" cy="896" r="12" fill="#eab308" stroke="#eab308" stroke-width="2"/><text x="582.64" y="897" text-anchor="middle" dominant-baseline="middle" font-family="'Roboto', sans-serif" font-size="11" font-weight="700" fill="#000000">8</text></g><g data-pid="U" style="cursor:pointer"><rect x="94" y="970" width="141" height="36" rx="6" fill="#ef4444" stroke="#000000" stroke-width="2"/><rect x="94" y="970" width="141" height="19.8" clip-path="url(#bcp0_970)" fill="white" fill-opacity="0.18"/><rect x="94" y="970" width="141" height="7.92" clip-path="url(#bcp0_970)" fill="white" fill-opacity="0.12"/><path d="M100,971 H130 V1005 H100 Q95,1005 95,1000 V976 Q95,971 100,971 Z" fill="white" fill-opacity="0.92"/><line x1="129" y1="974" x2="129" y2="1002" stroke="white" stroke-opacity="0.35" stroke-width="1"/><g transform="translate(103.0,979.0) scale(0.7500)" fill="none" stroke="#ef4444" stroke-width="2.40" stroke-linecap="round" stroke-linejoin="round"><path d="M19 21v-2a4 4 0 0 0-4-4H9a4 4 0 0 0-4 4v2"/><circle cx="12" cy="7" r="4"/></g><text x="182.5" y="989" text-anchor="middle" dominant-baseline="middle" font-family="'Roboto', sans-serif" font-size="13" font-weight="700" fill="#000000">User</text></g><g data-pid="E" style="cursor:pointer"><rect x="289" y="970" width="169" height="36" rx="6" fill="#f97316" stroke="#000000" stroke-width="2"/><rect x="289" y="970" width="169" height="19.8" clip-path="url(#bcp1_970)" fill="white" fill-opacity="0.18"/><rect x="289" y="970" width="169" height="7.92" clip-path="url(#bcp1_970)" fill="white" fill-opacity="0.12"/><path d="M295,971 H325 V1005 H295 Q290,1005 290,1000 V976 Q290,971 295,971 Z" fill="white" fill-opacity="0.92"/><line x1="324" y1="974" x2="324" y2="1002" stroke="white" stroke-opacity="0.35" stroke-width="1"/><g transform="translate(298.0,979.0) scale(0.7500)" fill="none" stroke="#f97316" stroke-width="2.40" stroke-linecap="round" stroke-linejoin="round"><circle cx="12" cy="12" r="10"/><path d="M12 2a14.5 14.5 0 0 0 0 20 14.5 14.5 0 0 0 0-20"/><path d="M2 12h20"/></g><text x="391.5" y="989" text-anchor="middle" dominant-baseline="middle" font-family="'Roboto', sans-serif" font-size="13" font-weight="700" fill="#000000">Browser editor</text></g><g data-pid="A" style="cursor:pointer"><rect x="512.14" y="970" width="141" height="36" rx="6" fill="#eab308" stroke="#000000" stroke-width="2"/><rect x="512.14" y="970" width="141" height="19.8" clip-path="url(#bcp2_970)" fill="white" fill-opacity="0.18"/><rect x="512.14" y="970" width="141" height="7.92" clip-path="url(#bcp2_970)" fill="white" fill-opacity="0.12"/><path d="M518.14,971 H548.14 V1005 H518.14 Q513.14,1005 513.14,1000 V976 Q513.14,971 518.14,971 Z" fill="white" fill-opacity="0.92"/><line x1="547.14" y1="974" x2="547.14" y2="1002" stroke="white" stroke-opacity="0.35" stroke-width="1"/><g transform="translate(521.1,979.0) scale(0.7500)" fill="none" stroke="#eab308" stroke-width="2.40" stroke-linecap="round" stroke-linejoin="round"><rect width="20" height="8" x="2" y="2" rx="2"/><rect width="20" height="8" x="2" y="14" rx="2"/><path d="M6 6h.01"/><path d="M6 18h.01"/></g><text x="600.64" y="989" text-anchor="middle" dominant-baseline="middle" font-family="'Roboto', sans-serif" font-size="13" font-weight="700" fill="#000000">API</text></g><g data-pid="D" style="cursor:pointer"><rect x="721.14" y="970" width="141" height="36" rx="6" fill="#22c55e" stroke="#000000" stroke-width="2"/><rect x="721.14" y="970" width="141" height="19.8" clip-path="url(#bcp3_970)" fill="white" fill-opacity="0.18"/><rect x="721.14" y="970" width="141" height="7.92" clip-path="url(#bcp3_970)" fill="white" fill-opacity="0.12"/><path d="M727.14,971 H757.14 V1005 H727.14 Q722.14,1005 722.14,1000 V976 Q722.14,971 727.14,971 Z" fill="white" fill-opacity="0.92"/><line x1="756.14" y1="974" x2="756.14" y2="1002" stroke="white" stroke-opacity="0.35" stroke-width="1"/><g transform="translate(730.1,979.0) scale(0.7500)" fill="none" stroke="#22c55e" stroke-width="2.40" stroke-linecap="round" stroke-linejoin="round"><ellipse cx="12" cy="5" rx="9" ry="3"/><path d="M3 5V19A9 3 0 0 0 21 19V5"/><path d="M3 12A9 3 0 0 0 21 12"/></g><text x="809.64" y="989" text-anchor="middle" dominant-baseline="middle" font-family="'Roboto', sans-serif" font-size="13" font-weight="700" fill="#000000">PostgreSQL</text></g><g data-pid="P" style="cursor:pointer"><rect x="930.14" y="970" width="141" height="36" rx="6" fill="#14b8a6" stroke="#000000" stroke-width="2"/><rect x="930.14" y="970" width="141" height="19.8" clip-path="url(#bcp4_970)" fill="white" fill-opacity="0.18"/><rect x="930.14" y="970" width="141" height="7.92" clip-path="url(#bcp4_970)" fill="white" fill-opacity="0.12"/><path d="M936.14,971 H966.14 V1005 H936.14 Q931.14,1005 931.14,1000 V976 Q931.14,971 936.14,971 Z" fill="white" fill-opacity="0.92"/><line x1="965.14" y1="974" x2="965.14" y2="1002" stroke="white" stroke-opacity="0.35" stroke-width="1"/><g transform="translate(939.1,979.0) scale(0.7500)" fill="none" stroke="#14b8a6" stroke-width="2.40" stroke-linecap="round" stroke-linejoin="round"><path d="M9.671 4.136a2.34 2.34 0 0 1 4.659 0 2.34 2.34 0 0 0 3.319 1.915 2.34 2.34 0 0 1 2.33 4.033 2.34 2.34 0 0 0 0 3.831 2.34 2.34 0 0 1-2.33 4.033 2.34 2.34 0 0 0-3.319 1.915 2.34 2.34 0 0 1-4.659 0 2.34 2.34 0 0 0-3.32-1.915 2.34 2.34 0 0 1-2.33-4.033 2.34 2.34 0 0 0 0-3.831A2.34 2.34 0 0 1 6.35 6.051a2.34 2.34 0 0 0 3.319-1.915"/><circle cx="12" cy="12" r="3"/></g><text x="1018.64" y="989" text-anchor="middle" dominant-baseline="middle" font-family="'Roboto', sans-serif" font-size="13" font-weight="700" fill="#000000">Pusher</text></g><style>[data-pid]{cursor:pointer}[data-pid],g[data-from]{transition:opacity .14s}</style></svg>